<?xml version="1.0" encoding="UTF-8" standalone="no"?>
<!-- Created with Inkscape (http://www.inkscape.org/) -->

<svg
   xmlns:dc="http://purl.org/dc/elements/1.1/"
   xmlns:cc="http://creativecommons.org/ns#"
   xmlns:rdf="http://www.w3.org/1999/02/22-rdf-syntax-ns#"
   xmlns:svg="http://www.w3.org/2000/svg"
   xmlns="http://www.w3.org/2000/svg"
   xmlns:sodipodi="http://sodipodi.sourceforge.net/DTD/sodipodi-0.dtd"
   xmlns:inkscape="http://www.inkscape.org/namespaces/inkscape"
   width="120mm"
   height="120mm"
   viewBox="0 0 425.19685 425.19685"
   id="svg4180"
   version="1.1"
   inkscape:version="0.91 r13725"
   sodipodi:docname="abe-logo.svg">
  <defs
     id="defs4182" />
  <sodipodi:namedview
     id="base"
     pagecolor="#ffffff"
     bordercolor="#666666"
     borderopacity="1.0"
     inkscape:pageopacity="0.0"
     inkscape:pageshadow="2"
     inkscape:zoom="1.5087474"
     inkscape:cx="241.61987"
     inkscape:cy="211.5802"
     inkscape:document-units="px"
     inkscape:current-layer="g4882"
     showgrid="false"
     inkscape:window-width="1402"
     inkscape:window-height="855"
     inkscape:window-x="38"
     inkscape:window-y="0"
     inkscape:window-maximized="1"
     showguides="false" />
  <metadata
     id="metadata4185">
    <rdf:RDF>
      <cc:Work
         rdf:about="">
        <dc:format>image/svg+xml</dc:format>
        <dc:type
           rdf:resource="http://purl.org/dc/dcmitype/StillImage" />
        <dc:title></dc:title>
      </cc:Work>
    </rdf:RDF>
  </metadata>
  <g
     inkscape:label="Layer 1"
     inkscape:groupmode="layer"
     id="layer1"
     transform="translate(0,-627.16536)">
    <g
       id="g4882"
       transform="matrix(0.70729847,0,0,0.70729847,-100.16394,505.44352)">
      <path
         inkscape:connector-curvature="0"
         id="path4783"
         d="m 443.92298,226.96132 c -42.93016,0.55489 -88.6862,5.62568 -124.30745,28.3421 -13.71675,9.3268 -19.05574,28.86487 -7.05356,41.03653 15.3011,17.7589 41.49734,23.78425 64.8926,29.19571 54.01121,10.7031 111.60948,8.56621 164.38509,-6.48703 17.58826,-5.83476 36.14891,-14.50052 44.21783,-30.14904 5.42551,-13.21381 -2.29424,-28.22246 -15.46902,-35.57318 -21.39972,-14.38838 -48.9131,-19.13115 -74.88908,-23.46641 -17.0961,-2.20279 -34.457,-2.9706 -51.77641,-2.89868 z"
         style="opacity:1;fill:#000000;fill-opacity:1;stroke:#000000;stroke-width:17.93343925;stroke-linecap:square;stroke-linejoin:miter;stroke-miterlimit:20;stroke-dasharray:none;stroke-dashoffset:0;stroke-opacity:1"
         sodipodi:nodetypes="ccccccccc" />
      <path
         sodipodi:nodetypes="cccccccccc"
         inkscape:connector-curvature="0"
         id="path4793"
         d="m 564.56617,257.02988 c -81.27869,1.8622 -162.66237,-2.04994 -243.87928,2.08987 -14.8871,7.54041 -17.44069,10.11695 -13.28336,41.02645 0.69379,70.66589 18.41371,212.03592 18.41371,212.03592 0,0 16.50344,51.31595 40.63818,59.0312 54.13871,19.53526 112.41421,15.88743 165.91329,-5.33851 21.25431,-10.26575 25.18511,-27.01169 34.9986,-54.98872 l 8.7197,-79.04489 c 0,0 15.87555,-139.18059 10.47839,-160.19864 -3.73559,-10.20149 -13.58713,-14.96285 -21.99923,-14.61268 z"
         style="opacity:1;fill:#000000;fill-opacity:1;stroke:#000000;stroke-width:21.20745468;stroke-linecap:square;stroke-linejoin:miter;stroke-miterlimit:20;stroke-dasharray:none;stroke-dashoffset:0;stroke-opacity:1" />
      <path
         inkscape:connector-curvature="0"
         id="path4803"
         d="m 436.27337,472.05645 c -62.77705,1.4085 -127.32688,11.10302 -183.93253,46.85489 -22.17697,13.31703 -44.29832,36.00456 -47.85048,67.68609 -2.45347,29.61889 14.99597,55.70853 34.52283,70.17529 44.08819,34.79507 97.07892,45.83796 148.31519,53.16745 76.28511,8.6675 155.11366,1.31232 227.12034,-32.24481 24.43841,-12.57022 49.46948,-30.09054 62.74738,-59.62033 8.99543,-22.76206 4.48119,-51.75332 -10.44898,-69.10524 -22.8405,-30.88113 -56.28855,-44.26687 -87.7776,-56.30056 -46.25801,-15.91191 -94.65273,-20.78669 -142.69615,-20.61278 z"
         style="opacity:1;fill:#000000;fill-opacity:1;stroke:#000000;stroke-width:22.08295059;stroke-linecap:square;stroke-linejoin:miter;stroke-miterlimit:20;stroke-dasharray:none;stroke-dashoffset:0;stroke-opacity:1" />
      <path
         sodipodi:nodetypes="sssss"
         inkscape:connector-curvature="0"
         id="path4732"
         d="m 672.06241,592.57871 c 10e-6,59.89719 -102.52603,108.45345 -228.99832,108.45345 -126.47229,0 -228.99833,-48.55626 -228.99832,-108.45345 -10e-6,-59.89719 102.52603,-108.45346 228.99832,-108.45346 126.47229,0 228.99833,48.55627 228.99832,108.45346 z"
         style="opacity:1;fill:#000000;fill-opacity:1;stroke:#ffffff;stroke-width:21.20745468;stroke-linecap:square;stroke-linejoin:miter;stroke-miterlimit:20;stroke-dasharray:none;stroke-dashoffset:0;stroke-opacity:1" />
      <path
         sodipodi:nodetypes="ssscccss"
         inkscape:connector-curvature="0"
         id="rect4738"
         d="m 326.56212,280.21841 241.74861,0 c 5.20743,0 10.16575,6.43241 9.39968,14.33942 l -28.2766,291.8585 c 0,0 -23.61488,49.87525 -102.58355,49.62463 -86.74901,0.40059 -95.115,-31.40261 -104.23888,-49.62463 l -25.44894,-291.8585 c -0.69007,-7.91401 4.19226,-14.33942 9.39968,-14.33942 z"
         style="opacity:1;fill:#000000;fill-opacity:1;stroke:#ffffff;stroke-width:21.20745468;stroke-linecap:square;stroke-linejoin:miter;stroke-miterlimit:20;stroke-dasharray:none;stroke-dashoffset:0;stroke-opacity:1" />
      <path
         sodipodi:nodetypes="sssss"
         inkscape:connector-curvature="0"
         id="ellipse4736"
         d="m 577.5803,284.31292 c 0,24.47031 -58.34275,44.3074 -130.31218,44.3074 -71.96943,0 -130.31218,-19.83709 -130.31219,-44.3074 -1e-5,-24.47031 58.34275,-44.30742 130.31219,-44.30742 71.96944,0 130.31219,19.83711 130.31218,44.30742 z"
         style="opacity:1;fill:#000000;fill-opacity:1;stroke:#ffffff;stroke-width:21.20745468;stroke-linecap:square;stroke-linejoin:miter;stroke-miterlimit:20;stroke-dasharray:none;stroke-dashoffset:0;stroke-opacity:1" />
      <path
         style="opacity:1;fill:#555555;fill-opacity:1;stroke:#ffffff;stroke-width:21.20745468;stroke-linecap:square;stroke-linejoin:miter;stroke-miterlimit:20;stroke-dasharray:none;stroke-dashoffset:0;stroke-opacity:1"
         d="m 442.93991,520.11098 c 117.98534,1.55772 116.78771,-51.27827 116.78771,-51.27827 l -5.63893,116.21526 c 0,0 -5.98923,55.41225 -107.24665,54.71062 -96.88588,0.63633 -105.81409,-50.93951 -106.05789,-54.71062 l -7.5131,-116.21526 c -0.24379,-3.77109 -0.81872,49.81954 109.66886,51.27827 z"
         id="path4958"
         inkscape:connector-curvature="0"
         sodipodi:nodetypes="sccccss" />
    </g>
  </g>
</svg>
